<svg xmlns="http://www.w3.org/2000/svg" width="598" height="422"><path fill="#B2764A" d="M349 3c13.465-.734 26.995 3.15 40.063 6l3.495.754c6.054 1.347 11.678 2.97 17.442 5.246 1.907.517 3.824 1 5.75 1.438 9.327 2.264 18.064 5.33 26.746 9.417a70 70 0 0 0 6.317 2.52c5.66 2.052 10.955 4.94 16.31 7.672 2.49 1.264 4.994 2.501 7.497 3.74 7.23 3.584 14.087 7.203 20.603 11.975 2.812 1.96 5.776 3.585 8.777 5.238v2l2.148.75c3.196 1.4 5.687 3.16 8.477 5.25 2.765 2.06 5.505 4.087 8.375 6v2h2v2l4 1v2l1.75.75c2.58 1.433 4.311 3.034 6.25 5.25v2l1.875.75c2.529 1.487 2.843 2.687 4.125 5.25l1.813.875c3.32 1.708 4.951 4.144 7.187 7.125v2l1.938.75C554 104 554 104 554.563 106.063L555 108l3 1c2.043 2.617 2.043 2.617 4.188 5.875l2.167 3.242C566 121 566 121 566 124h2c5.605 9.67 10.808 19.194 14.746 29.668.86 2.286 1.793 4.545 2.785 6.777 1.525 3.691 2.6 7.371 3.532 11.243l.486 1.912c.524 2.126.995 4.258 1.451 6.4l.557 2.526c1.69 8.647 1.748 17.18 1.704 25.955-.011 2.515 0 5.028.012 7.542.012 11.993-1.218 23.16-4.523 34.727l-.66 2.315C583.477 268.896 577.188 284.219 568 298h-2l-.29 1.645c-.914 3.03-2.394 5.37-4.085 8.043l-1.836 2.949C558 313 558 313 555 314l-.812 2.125c-1.615 3.908-4.114 6.976-7.188 9.875h-2l-.625 1.625c-1.908 3.295-4.423 5.969-7.375 8.375h-2l-.7 2.238c-1.559 3.312-3.236 4.704-6.112 6.95l-2.989 2.351L522 350l-3.23 2.523c-17.892 13.934-17.892 13.934-25.829 18.383-2.111 1.19-4.2 2.414-6.289 3.645C464.312 387.668 440.88 398.555 416 406l-2.33.713a318 318 0 0 1-34.838 8.525c-3.615.543-3.615.543-5.832 1.762a267 267 0 0 1-7.625 1.063l-2.14.275q-2.618.335-5.235.662v-3q2.812-.722 5.625-1.437l3.164-.81c3.06-.718 6.106-1.273 9.211-1.753v-3h2v-2h2v-2h2v-2h2v-2h2l.813-1.937C388 397 388 397 391 396c.691-1.32 1.353-2.657 2-4a129 129 0 0 1 4.25-4.812c6.543-6.614 6.543-6.614 11.75-14.188h2l.875-2.312C413 368 413 368 415 365h2l.875-2.312C419 360 419 360 421 357h2c.26-.713.52-1.426.79-2.16 1.276-2.995 2.813-5.55 4.585-8.277l1.773-2.747L432 341l1.492-3.324c2.978-3.177 3.73-3.102 7.93-3.262q3.166.06 6.328.211l3.27.082q3.991.107 7.98.293c-1.364 6.374-5.823 11.195-9.75 16.25l-1.328 1.714Q445.964 355.485 444 358l-2.078 2.68c-4.98 6.337-10.153 12.68-15.922 18.32h-2l-.625 1.688c-1.952 3.282-4.317 5.019-7.375 7.312h-2l-.617 1.723c-1.889 3.11-4.528 4.756-7.508 6.714l-1.778 1.197A639 639 0 0 1 399 401l-2.355 1.555c-4.396 2.825-8.94 5.176-13.645 7.445 6.602-1.404 13.077-3.073 19.563-4.937l2.708-.764c16.9-4.834 33.195-12.134 48.729-20.299l2.777-1.453c13.841-7.398 27.155-15.61 39.493-25.336C498 356 498 356 500 356l1-3a84 84 0 0 1 4.563-3.687c15.576-12.506 29.314-27.52 39.352-44.844L546 303h2l.762-2.59c1.325-3.648 3.04-6.655 5.05-9.973 3.86-6.58 6.726-13.202 9.188-20.437l.726-2.032c15.12-42.476 11.916-87.25-6.726-127.968-1.864-3.755-3.873-7.388-6-11l-1.355-2.398c-6.073-10.512-13.375-20.307-21.149-29.614C527 95 527 95 526 92l-1.75-.875c-3.038-1.519-4.912-3.673-7.25-6.125l-2.687-2.562C512 80 512 80 511 77.812c-1.426-2.584-3.293-2.742-6-3.812a113 113 0 0 1-3.445-3.457C494.585 63.625 486.182 58.34 478 53l-6.187-4.187C463.87 43.525 455.573 39.163 447 35l-3.371-1.66c-8.075-3.916-16.246-7.102-24.738-9.992-3.911-1.334-7.725-2.853-11.52-4.489-3.397-1.23-6.857-2.018-10.371-2.859l1.68.962q3.787 2.173 7.57 4.35c.873.5 1.745 1 2.645 1.514l2.558 1.475 2.349 1.349c2.189 1.344 4.238 2.687 6.198 4.35v2l1.648.191c3.326 1.144 5.482 3.363 7.977 5.746l1.59 1.494A687 687 0 0 1 436 44l2.762 2.637C443.948 51.696 449.032 56.903 453 63v2h2a114 114 0 0 1 4.625 6.625l1.342 2.048c5.699 8.78 11.338 17.673 14.978 27.53a155 155 0 0 0 2.672 6.594c4.24 9.9 7.51 19.83 10.383 30.203l1 3c.131 3.338.043 6.657 0 10l-19-1-1.39-5.047-1.86-6.703-.91-3.309c-2.058-7.397-4.368-14.672-6.84-21.941l-1.133-3.566C455.412 99 450.3 89.595 445 80l-1.108-2.035c-4.856-8.913-10.308-17.191-16.622-25.145C426 51 426 51 426 49h-2c-1.727-1.68-1.727-1.68-3.625-3.875l-1.914-2.18C417 41 417 41 417 39l-1.875-.75c-2.529-1.487-2.843-2.687-4.125-5.25l-1.723-.848c-2.94-1.488-5.198-3.464-7.714-5.59-2.744-2.315-5.307-4.413-8.41-6.222L391 19v-2l-5-2v-3l-3.812-.312c-3.615-.395-6.948-1.11-10.438-2.126-5.254-1.519-10.49-2.383-15.902-3.132A58 58 0 0 1 349 5zM243 3v3l-2.422.332c-6.65.96-13.07 2.229-19.566 3.938-4.954 1.201-9.974 1.97-15.012 2.73v2c-6.75 4-6.75 4-9 4v2l-4 1v2c-1.39 1.148-1.39 1.148-3.25 2.375-2.284 1.555-4.092 2.967-6.062 4.938L182 33h-2l-.687 1.688c-1.678 2.955-3.901 4.914-6.313 7.312-15.449 17.228-27.093 36.182-35.937 57.563l-1.315 3.172c-4.758 11.586-9.33 23.188-12.01 35.456-.969 3.687-2.4 7.24-3.738 10.809l-18 1c0-10.14 0-10.14 1.137-14.305l.742-2.75.808-2.82.824-2.944c1.687-5.864 3.606-11.42 6.344-16.888 1.183-2.369 2.14-4.758 3.082-7.23 4.445-11.19 10.49-21.256 16.982-31.344.966-1.535 1.866-3.112 2.757-4.692L136 65h2l.688-1.562C140.482 60.105 142.5 56.853 145 54h2l.656-1.64c1.81-3.178 4.256-5.57 6.844-8.11l1.631-1.61C164.642 34.343 174.19 27.642 184 21c-18.383 4.453-35.623 13.786-52 23l-2.996 1.684C122.403 49.459 116.154 53.537 110 58l-2.645 1.867c-6.251 4.454-12.117 9.215-17.921 14.227C87 76 87 76 85 76l-1 3h-2l-.64 1.64c-1.858 3.225-4.441 5.565-7.11 8.11-4.173 4.052-7.91 8.07-11.164 12.922L62 103h-2c-.26.73-.518 1.462-.785 2.215-1.256 2.879-2.706 4.892-4.653 7.347C39.788 132.54 30.553 155.94 25 180l-.593 2.414c-1.833 8.435-1.78 16.925-1.778 25.517a605 605 0 0 1-.078 7.805c-.072 10.868 1.158 20.778 3.93 31.286.532 2.03 1.032 4.065 1.524 6.104 4.703 19.248 13.85 36.36 23.87 53.311l1.081 1.844c2.034 3.367 4.21 6.011 7.044 8.719a353 353 0 0 1 4.313 5.313c3.278 4.06 6.648 7.8 10.472 11.347C76 335 76 335 76 337h2a59 59 0 0 1 2.813 3.375c3.792 4.519 8.168 7.86 12.919 11.298 1.454 1.067 2.866 2.192 4.268 3.327v2l2.145.734c3.277 1.453 5.724 3.303 8.543 5.516 4.673 3.596 9.387 6.711 14.546 9.559L125 374v2l1.692.343c2.647.753 4.814 1.864 7.238 3.169l2.889 1.539 3.056 1.637c8.575 4.531 17.093 8.76 26.125 12.312l3.348 1.324A800 800 0 0 0 179 400l3.117 1.2 2.946 1.113 2.597.988c2.572.89 2.572.89 6.34.699l-1.687-1.102c-4.646-3.06-9.169-6.22-13.586-9.601-1.536-1.154-3.129-2.231-4.727-3.297v-2l-1.73-.742c-7.282-4.036-12.907-11.98-18.27-18.258q-1.444-1.65-2.89-3.297c-4.98-5.699-9.84-11.306-13.86-17.742-1.29-2.023-2.717-3.88-4.187-5.774C131 339 131 339 131.37 336.802L132 335c3.734.075 7.458.247 11.188.438l3.197.06c7.674.46 7.674.46 10.271 3.335 1.264 2.341 2.29 4.726 3.344 7.167a77 77 0 0 0 2.79 3.984l1.413 1.895 1.422 1.871C174 364.864 174 364.864 174 368l3 1c1.719 1.926 1.719 1.926 3.5 4.313l1.781 2.363L184 378l1.719 2.168C187 382 187 382 187 384l1.797.781c2.38 1.317 3.713 2.645 5.453 4.719l1.578 1.844C197 393 197 393 197 395l1.688.688c2.97 1.686 4.957 3.842 7.312 6.312l2.688 2.625C211 407 211 407 213 410c2.086.841 2.086.841 4.55 1.316l2.791.625 2.971.622 3.003.655c7.192 1.542 14.385 2.86 21.685 3.782v3c-14.282-.784-28.065-3.965-42-7l-3.508-.755c-5.32-1.178-10.37-2.454-15.419-4.5-2.567-.922-5.156-1.53-7.811-2.155-6.353-1.538-12.362-3.66-18.45-6.027l-3.358-1.298C145.329 393.486 133.648 387.83 122 382l-2.483-1.24q-2.76-1.378-5.517-2.76v-2l-1.652-.309c-8.374-2.466-15.995-8.705-22.875-13.894-2.468-1.862-2.468-1.862-5.29-3.406-.72-.46-1.44-.918-2.183-1.391v-2l-1.812-.875C78 353 78 353 75 351v-2l-1.77-.805c-2.298-1.232-3.984-2.577-5.918-4.32l-2.074-1.863L63 340l-2.52-2.168-2.48-2.144-2.312-1.989C54 332 54 332 54 330h-2a161 161 0 0 1-5.437-6.812q-1.465-1.92-2.934-3.833l-1.31-1.73c-1.298-1.681-1.298-1.681-2.983-3.147C38 313 38 313 38 310h-2v-2h-2l-2-6h-2c-5.82-8.01-10.117-16.928-14-26l-1.082-2.477c-8.14-19.394-12.311-39.465-12.179-60.502.011-2.02 0-4.04-.012-6.06-.019-13.668 1.728-26.515 5.71-39.586l.909-3.137c1.449-4.871 2.967-8.903 5.654-13.238a65 65 0 0 0 1.188-4.437C19.464 135.079 27.32 124.738 34 115l2-3h2l.242-1.703c1.009-3.058 2.683-4.705 4.883-7.047 2.767-2.98 5.5-5.957 8.125-9.062 3.333-3.81 6.833-7.449 10.375-11.063l1.669-1.734C66.327 78.333 68.76 76.245 73 75v-2c1.46-1.508 1.46-1.508 3.375-3.125l1.898-1.633C80 67 80 67 82 67v-2a123 123 0 0 1 5-3 370 370 0 0 0 5.25-3.875c4.002-2.936 7.99-5.528 12.379-7.837 2.385-1.296 4.696-2.677 7.012-4.093C124.86 38.232 138.528 31.355 153 26q3.281-1.28 6.563-2.562Q162.779 22.215 166 21c1.039-.4 2.078-.8 3.148-1.21C191.518 11.446 218.915 2.513 243 3"/><path d="m172 73 .625 2.25c2.199 4.398 5.722 6.036 10.125 7.938 8.318 2.079 16.836 1.92 25.355 1.804l6.916-.05c3.595-.032 7.19-.067 10.783-.113 3.497-.043 6.993-.066 10.489-.087l3.242-.056c5.911-.02 10.335.24 15.465 3.314 2.556 3.192 2.231 6.54 2.195 10.516l-.02 3.789-.05 3.945-.027 3.992q-.036 4.879-.098 9.758h-2l-1-14c-3.687 9.458-4.65 18.767-3.191 28.813.293 3.35-.147 6.566-.555 9.894-.316 2.468-.316 2.468-.254 5.668 0 2.457-.3 4.289-1 6.625l-.562 2.25L248 161h-6c-.986-3.083-.974-4.97-.062-8.062.736-2.541 1.062-4.242 1.062-6.938h-7l-1-4-1 2-6-1-1-7c-4.46-1.143-8.753-.999-13.312-.875-6.237.101-11.031-.236-16.688-3.125l-.875 2.625c-1.125 3.375-1.125 3.375-2.25 6-1.321 5.096-1.027 10.14-.875 15.375h-2l-1 5h-6c.875-6.75.875-6.75 2-9a184 184 0 0 0-.691-6.363 88 88 0 0 1-.461-5.43c-.357-6.3-1.432-9.927-4.848-15.207-.72-1.981-1.408-3.977-2-6h-2l-.77-2.16c-3.603-10.098-3.603-10.098-8.417-19.653C165 94 165 94 165 92l-2.375.25c-5.001-.345-9.077-2.236-13.625-4.25v-7q3.207-1.427 6.418-2.844a232 232 0 0 0 5.008-2.312C167.659 72.44 167.659 72.44 172 73"/><path fill="#009441" d="M45 260h505v9H45z"/><path fill="#00943F" d="M46 163q3 .215 6 .438l3.621.265c2.533.223 4.946.54 7.441.984 4.59.365 8.515-.315 13.008-1.214 3.027-.489 5.87-.55 8.93-.473v8l-3.437 1.25c-3.597 1.277-3.597 1.277-4.28 3.507-.335 2.651-.395 5.21-.38 7.884l.01 3.242c.007 1.111.016 2.222.025 3.367l.013 3.414q.018 4.168.049 8.336l1-2h2l.723-2.187c1.468-3.234 3.271-5.245 5.715-7.813 2.408-2.54 4.44-4.794 6.222-7.812L94 180h2l.875-1.812C98 176 98 176 100 173h2l2-5h2l.625-1.937C108 164 108 164 110.875 163.188c3.125-.188 3.125-.188 4.898.328 3.08.67 5.845.328 8.977.047l3.547-.31L131 163v8l-2.484.805-3.266 1.07-3.234 1.055c-2.471.877-4.713 1.83-7.016 3.07v2a879 879 0 0 1-4.996 4.156c-2.853 2.626-5.052 5.63-7.36 8.735-1.43 1.835-2.869 3.358-4.582 4.922-2.52 2.171-2.52 2.171-2.062 6.187 1.071 2.19 1.071 2.19 2.59 4.371l1.627 2.49 1.72 2.577a694 694 0 0 1 3.34 5.058l1.508 2.256c1.311 2.426 1.811 4.532 2.215 7.248h2c4 5.412 4 5.412 4 8l1.875.75C119 237 119 237 119.938 239c1.49 2.807 3.095 2.964 6.062 4q2.895.852 5.813 1.625c.975.26 1.951.52 2.957.79.736.192 1.472.386 2.23.585v8c-9.673 1.759-21.706 2.917-30.379-2.48-4.509-3.365-8.33-6.956-11.621-11.52v-2h-2a143 143 0 0 1-4.75-7.375l-1.266-2.059C83.614 223.07 80.311 217.532 77 212c-.03 4.208-.047 8.417-.062 12.625l-.026 3.605-.01 3.497-.016 3.205c.115 3.102.537 6.021 1.114 9.068l8 2q.061 3.5 0 7l-1 1a145 145 0 0 1-6.375-.437C67.62 252.707 56.998 253.1 46 254l-1-7 1.68-.488c2.474-.93 4.25-1.854 6.32-3.512 2.464-6.796 2.297-14.562 2.266-21.715l.005-2.96q.002-3.075-.01-6.149c-.011-3.102 0-6.204.012-9.307.585-14.677.585-14.677-2.273-28.869-2.521-2.04-4.878-3.158-8-4z"/><path fill="#009541" d="m368 163 1.908.108q4.328.235 8.654.454l3.002.17c5.33.266 10.151.128 15.436-.732 2.814-.164 5.62-.185 8.438-.187l2.158-.038c8.42-.023 17.56 1.774 23.947 7.643 5.632 6.424 5.995 12.677 5.762 20.914-.604 7.264-3.208 10.89-8.555 15.668a192 192 0 0 1-3.75 3c1.307 9.165 7.515 17.642 12.738 25.098 1.264 1.906 2.283 3.837 3.262 5.902h2v2l11 3v8c-10.217 1.673-21.285 1.171-30-5-6.474-5.274-9.607-13.754-13.1-21.125a209 209 0 0 0-2.638-5.246C407 220 407 220 407 218l-9-2c.087 3.355.194 6.708.313 10.063l.068 2.857c.219 5.708.768 10.078 3.619 15.08 3.052 1.52 3.052 1.52 6 2v8l-2.676-.219c-11.355-.878-22.203-.899-33.55.098L369 254c-1-1-1-1-1.062-4.562L368 246l1.715-.621 2.223-.816 2.214-.81c1.831-.607 1.831-.607 2.848-1.753 1.237-6.304 1.161-12.59 1.168-18.996l.01-3.477q.007-3.63.007-7.26c.002-3.689.02-7.377.04-11.066q.005-3.536.005-7.072l.022-3.321c-.017-5.944-.37-11.147-2.252-16.808-1.857-1.56-1.857-1.56-4.125-2l-2.195-.625L368 171zm31 10v33c8.299.788 8.299.788 11.938-1.812 4.504-4.778 4.987-8.828 5.062-15.188-.593-4.76-1.915-9.277-5-13-4.458-2.394-6.863-3-12-3"/><path fill="#00943F" d="M535.75 170.938c7.615 6.948 13.756 16.068 14.411 26.668q.068 4.79.089 9.582l.063 3.33c.06 12.777-4.105 22.334-12.598 31.822-9.259 8.963-20.249 12.28-32.86 12.21-9.28-.354-18.169-3.25-25.855-8.55v-2l-1.781-.754c-8.238-4.626-11.323-14.57-13.747-23.107-2.746-12.454-1.312-26.855 4.528-38.139 1.543-2.367 1.543-2.367 3-4h2c.095-.59.19-1.178.29-1.785 1.634-5.092 6.967-8.24 11.44-10.742 16.838-8.013 36.566-6.455 51.02 5.464M495 175l-1 3h-2c-7.578 14.493-9.709 31.064-5 47 2.427 7.505 5.07 13.32 11.75 17.875 5.068 1.754 9.732 1.71 14.938.5C519.72 239.787 523.735 234.62 526 228c3.361-14.056 4.531-32.699-2.187-45.937-2.915-4.71-6.836-8.574-11.813-11.063-6.797-.678-11.848-.746-17 4M201 162h12c2.94 5.576 5.11 11 7 17 2.457 7.554 4.94 15.057 7.965 22.406 2.788 6.987 5.26 14.112 7.535 21.281 4.341 13.144 4.341 13.144 13.813 22.688L251 246v8l-2.71-.219c-11.024-.846-21.466-.863-32.481.098L213 254c-1-1-1-1-1.062-4.562L212 246l7-2a228 228 0 0 0-1.937-12.25l-.465-2.516c-.54-2.494-.54-2.494-2.598-5.234v-3h-23l-1 6a123 123 0 0 1-2 5.438c-1.604 4.253-2.598 8.044-3 12.562l6 1v8l-3.77-.254c-8.222-.515-16.194-1.012-24.394.098L161 254c-1-1-1-1-1.062-4.562L160 246l3.125-.937c6.961-2.996 10.091-10.912 12.875-17.547l1-2.516 1.25-3.14c1.897-4.855 3.734-9.705 5.313-14.673a46.7 46.7 0 0 1 3.312-7.843c2.306-4.538 3.944-9.213 5.563-14.031A558 558 0 0 1 201 162m1 30q-1.505 4.185-3 8.375l-.867 2.406-.82 2.305-.762 2.126c-.65 1.795-.65 1.795-.551 3.788h14c-1.886-6.376-3.856-12.706-6-19z"/><path d="M413 60c3.77.41 5.801.867 9 3v2h2c.554 5.629-1.146 8.756-4 13.375l-1.156 1.941A449 449 0 0 1 416 85l1.477 2.305c1.818 3.218 1.998 5.052 1.523 8.695-1.375 1.875-1.375 1.875-3 3h-2v3l1.688.563c4.195 2.607 6.77 6.808 8.312 11.437.58 8.628.969 15.627-4 23 .178 3.141.603 5.207 2 8l2.938.75c3.062 1.25 3.062 1.25 4.437 4C430 153 430 153 430 159h-67c0-9 0-9 1.328-11.516 4.278-2.376 8.605-2.163 13.422-2.234l2.98-.09q3.635-.105 7.27-.16l-1.79-.754c-4.395-1.894-8.447-3.762-12.272-6.684l-2.286-1.683C370 134 370 134 369.684 131.395c.316-2.395.316-2.395 1.441-4.27 2.797-1.678 4.812-.874 7.875-.125l-1.531-.953-1.969-1.297-1.969-1.266L372 122v-4h2v-2c5.359.392 9.142 2.336 13 6v2l1.664.277c3.965 1.227 7.109 3.864 10.484 6.227 3.267 1.714 5.214 1.942 8.852 1.496 2.884-2.884 2.805-4.96 3-9-1.156-5.088-3.35-9.233-7-13h-2v5l-2.187-.312c-3.08.045-3.08.045-5.375 2.874L392 120c-2.312-.187-2.312-.187-4-1l1-6-1 1c-1.666.04-3.334.043-5 0v-8l-2-2c.375-2.125.375-2.125 1-4l5 1q2.161-3.31 4.313-6.625l1.224-1.871c2.416-3.732 4.55-7.48 6.463-11.504h2l.313-2.187c.755-3.09 1.842-5.23 3.687-7.813h2l.438-1.875C408 67 408 67 409 65h2l.438-1.937C412 61 412 61 413 60m-23 50 1 2Zm-7 20 2 3 2-1zm4 3c2.462 5.092 4.585 7.097 10 9-.155-1.922-.155-1.922-1-4-2.067-1.565-2.067-1.565-4.562-2.75l-2.504-1.297z"/><path fill="#009540" d="M276 161q3.563.214 7.125.438l2.016.119c2.956.188 5.8.43 8.703 1.037 4.591.59 8.95-.005 13.531-.531l2.809-.303q3.41-.37 6.816-.76v8l-5.176 1.758c-2.944 2.005-3.554 3.877-4.824 7.242-.436 4.317-.396 8.613-.363 12.95l-.002 3.786c.003 3.308.02 6.616.042 9.924.014 2.703.009 5.406.003 8.109-.004 3.227.008 6.453.02 9.68l-.004 3.674.03 3.4.013 2.993c.093 2.735.093 2.735 2.261 5.484 7.761 2.587 16.18.482 24-1l.875-2.75c.89-2.572 1.84-4.863 3.125-7.25h8l-.437 2.938c-1.236 7.94-1.236 7.94-1.375 15.937C343 248 343 248 341.438 249.75c-5.345 2.74-11.664 2.441-17.563 2.438l-2.329.006c-6.195-.046-12.268-.628-18.421-1.319-6.88-.766-12.935-.985-19.75.617-2.521.54-4.804.59-7.375.508v-9l3.375-.312L283 242c4.233-6.35 3.149-15.18 3.133-22.59l.003-2.983q0-3.105-.006-6.21c-.005-3.142 0-6.284.007-9.426q0-3.035-.004-6.068l.006-2.807c-.016-4.476-.137-8.934-.46-13.399l-.172-2.413c-.62-2.571-1.438-3.49-3.507-5.104-3.1-1.2-3.1-1.2-6-2z"/><path fill="#00953F" d="m333.5 59.875 3.344-.008c2.84.12 5.394.484 8.156 1.133-.31 3.507-.855 4.849-3.336 7.434-4.447 5.167-5.301 12.257-6.893 18.712-1.719 6.485-3.516 11.469-8.771 15.854-3.773 2.175-7.005 2.22-11.312 2.125l-3.239-.055L309 105c-5.507 12.265-5.382 26.682-6.125 39.938l-.262 4.42Q302.3 154.677 302 160c-5.875-.875-5.875-.875-7-2a94 94 0 0 1-.395-4.934l-.2-3.132-.217-3.371c-.305-17.198-.305-17.198-6.188-32.563l-3.312.125c-3.826-.13-5.084-.416-7.688-3.125v-2l-3-1c-2.238-4.118-3.205-7.82-3.937-12.437-.722-4.45-1.927-7.907-4.16-11.81-.975-1.892-1.46-3.677-1.903-5.753 8.908-.324 16.6.777 24 6 5.137 6.386 6.274 12.05 6 20h-3l1.277 3.395 1.66 4.418.842 2.236.81 2.158.747 1.984c.584 1.592 1.128 3.2 1.664 4.809l.516-2.492c1.713-7.894 3.865-15.269 7.484-22.508h-2c-1.227-20.646-1.227-20.646 6-29 2.203-1.281 2.203-1.281 4-2v-2a378 378 0 0 1 3.688-1.937l2.074-1.09c4.526-1.967 8.846-2.11 13.738-2.098M318 82c-1.637 1.96-1.637 1.96-3 4 1.985-.267 1.985-.267 4-1l1-3zm-10 11 1 2Zm-27 1 1 2Zm25 2 1 2Z"/><path d="m175 308 2 1v2c2.867-.573 3.861-.861 6-3 3.036-.496 5.96-.468 9 0 2.063 1.875 2.063 1.875 3 4v2l-2 1 2 1 1.438-3.437C198 309 198 309 199 308c3.053-.433 5.952-.48 9 0 2.956 2.66 4.416 5.06 5 9l2-2-2-1c.313-1.875.313-1.875 1-4 3.158-2.105 3.954-2.253 7.563-2.187l2.378.019C226 308 226 308 228 309c1.25 3.364 1.101 6.699 1.063 10.25l-.028 3.266L229 325q-3.375.079-6.75.125l-3.797.07c-3.181-.18-4.818-.505-7.453-2.195l-3 2c-7.149.68-7.149.68-10.5-2l-1.5-2-1.437 2c-3.29 2.567-5.386 2.44-9.442 2.434-2.617-.535-3.548-1.298-5.121-3.434v-3h2v-3c-2.556 2.222-3.264 3.742-4 7-2.381 2.381-3.107 2.345-6.375 2.438-3.504-.09-4.357-.222-7.187-2.5-1.816-3.71-2.094-5.855-1.438-9.938 3.464-4.933 6.104-5.667 12-5m10 4 2 2h3v-2zm18 0-1 2 4-1zm15 0v2h6l-1-2zm-47 0-2 2 4-1zm-2 6 1 3 4-1v-2zm32 0 1 3 5-1v-2zm-16 1 1 2h4v-2zm33 0 1 2 3-1zM193 272c2.313.188 2.313.188 5 1 3.432 4.255 5.06 9.93 7 15l.313-3.312C206 281 206 281 207.188 279.125c4.756-2.952 9.548-1.948 14.812-1.125.135 2.73.234 5.455.313 8.188l.126 2.33c.093 4.29-.049 5.97-2.736 9.502-3.51 2.571-5.44 2.6-9.703 1.98-2.437-1.312-2.437-1.312-4-3v-3h-5l-2-5-8-1-.437 1.875C190 292 190 292 189 294h-5c.478-6.051 3.216-10.738 6-16a583 583 0 0 0 1.813-3.625zm2 9-2 3h3zm17 1-1 6 4 2c2.287-1.839 2.287-1.839 2.125-4.625L217 283zm-1 12 1 2 4-1v-1zM374 308h14c-1.168 7.007-2.065 7.59-7 12l8 1 .438-2.437C390 316 390 316 391 315l-2-1c1.75-4.875 1.75-4.875 4-6a63 63 0 0 1 4.5-.187l2.406-.043C402 308 402 308 404 310c.306 2.57.51 5.048.625 7.625l.117 2.14c.094 1.745.177 3.49.258 5.235h-31c-.2-3.716-.152-4.772 2-8h2v-2h2v-2l-6-1zm21 4-1 2h6l-1-2zm0 7v2l4-2zM306 308h10l1 2 2-2c2.566-.23 2.566-.23 5.563-.187l3.003.019C330 308 330 308 331 309c.154 2.971.232 5.903.25 8.875l.063 2.512.015 2.418.028 2.218c-.458 2.54-1.337 3.416-3.356 4.977-2.41.363-2.41.363-5.062.313l-2.66-.012C318 330 318 330 316 328l.5-2.437c.856-2.79.856-2.79-1.5-5.563a98 98 0 0 1 0-7l-5 1v11h-4zm17 4-2 1v6c1.946.59 1.946.59 4 1 1.265-1.054 1.265-1.054 1.25-3.437L326 314zm-2 13 4 1ZM471 278c2 2 2 2 2 5h2l.75-1.875c1.54-2.62 2.34-3.26 5.25-4.125 3.625.188 3.625.188 7 1 2 3 2 3 2 6h-5v-2h-5v8l2.188-.937c2.615-.989 5.063-1.592 7.812-2.063.188 2.375.188 2.375 0 5-3.69 2.46-6.716 2.578-11 2-2.5-1.375-2.5-1.375-4-3v-2h-2l-.375 1.938L472 293c-3.472 1.736-7.212 1.592-11 1-3.069-2.545-3.848-4.09-4.5-8 .62-3.715 1.857-5.357 4.5-8 3.74-1.247 6.166-.767 10 0m-7 4c-1.198 2.329-1.198 2.329-2 5l2 3 4-1c.692-1.847.692-1.847 1-4l-2-3z"/><path d="m142 303 7.813-.187 2.448-.083c5.242-.061 5.242-.061 7.708 1.582 1.498 2.452 1.717 4.865 2.031 7.688l-4 2c1.522 2.629 2.844 4.844 5 7v4c-2.125.438-2.125.438-5 0-2.335-2.083-4.28-4.387-6-7v-2h-5v8l-5 1zm5 5v3h8l1-3zM314.563 278.063c3.242 1.246 4.29.211 7.437-1.063 6.436.436 6.436.436 9 3 .3 2.365.495 4.744.625 7.125l.227 3.883L332 294c-2.459.08-4.915.14-7.375.188l-2.117.076c-2.031.029-2.031.029-5.508-.264-2-3-2-3-1.625-5.437L316 286v-4l-5 2-1 10h-4v-16c6-1 6-1 8.563.063M321 282l-1 2h5l1-2zm1 6-1 2 4-1zM356.938 271.5c3.062.5 3.062.5 5.5 2.188C364 276 364 276 363.875 278.625 363 281 363 281 361 283h6l-.062 2.75c.051 2.677.284 4.72 1.062 7.25-3.75 1.125-3.75 1.125-6 0l-2 1c-7.066.57-7.066.57-10.562-1.562-2.019-3.423-1.309-5.665-.438-9.438l3-1-.687-2.75c-.313-3.25-.313-3.25.75-5.625C354 272 354 272 356.938 271.5M354 286v3h4v-2zM300.18 303.777c2.273 1.527 2.905 2.653 3.82 5.223.525 3.397.56 6.606 0 10-2.437 3.063-2.437 3.063-5 5l-1 1c-4.906.554-8.79.741-13.062-1.875-3.54-3.882-3.406-7.306-3.333-12.414.395-2.711.395-2.711 2.77-5.899 4.628-3.04 10.72-2.848 15.805-1.035M289 308c-1.936 2.847-1.99 4.154-1.75 7.688L288 319c2.771 1.386 4.933 1.188 8 1l3-2c.438-1.905.438-1.905.313-4l-.012-2.125c-.152-2.117-.152-2.117-2.301-3.875-2.688-.27-5.291-.087-8 0M92 272h5l1 8 1.574-1.75 2.114-2.25 2.074-2.25c2.651-2.073 3.955-2.118 7.238-1.75-.472 4.248-2.967 6.2-6 9 1.118 2.516 2.295 4.358 4.063 6.5 1.803 2.328 2.514 3.644 2.937 6.5-2.262.25-2.262.25-5 0-2.02-1.75-2.02-1.75-3.812-4l-1.833-2.25L100 286l-2 1a109 109 0 0 0-1 7h-5zM338.313 307.734l2.687.016 2.688-.016C346 308 346 308 348 310c.3 2.365.495 4.744.625 7.125l.227 3.883L349 324c-3.281.982-6.27 1.134-9.687 1.125l-2.95.008C334 325 334 325 333 324c-.187-3.437-.187-3.437 0-7l2-2-2-1c.718-3.59 1.292-5.804 5.313-6.266M338 312v2h5v-2zm0 7v2l4-2zM175 278c2.858 2.858 2.408 5.147 2.625 9.125l.227 3.883L178 294q-3.437.079-6.875.125l-3.867.07C164 294 164 294 162 292c-.125-3-.125-3 0-6v-2c.188-2.5.188-2.5 1-5 4.025-2.604 7.462-2.027 12-1m-8 4-1 2 6-1v-1zm1 6-1 2 4-1z"/><path d="M125 278v2h2c1.398 7.922 1.398 7.922 0 12-3.605 2.404-6.794 2.75-11 2-2.227-1.207-2.227-1.207-4-3-.496-2.375-.496-2.375-.437-5l.003-2.625c.508-2.783 1.23-3.66 3.434-5.375 3.474-1.437 6.39-.738 10 0m-7 4 4 1Zm-2 5 2 3c2.473-.344 2.473-.344 5-1l1-2zM431.875 280.125c1.884 3.14 1.73 6.38 1.125 9.875-1.437 2.5-1.437 2.5-4 4-3.815.6-7.471 1.059-10.754-1.215-1.649-2.362-1.647-3.924-1.621-6.785l-.023-2.625c.47-2.802 1.188-3.654 3.398-5.375 4.275-1.916 8.055-.167 11.875 2.125M421 287l4 4 4-4zM425 308c8.013-.77 8.013-.77 11.563 2 1.986 4.145 2.019 6.417 1.437 11-1.5 2.5-1.5 2.5-4 4-3.77.672-6.894.454-10.437-1-2.355-3.014-2.601-6.231-2.563-10l1-3h2zm4 4c-2.238 1.83-2.238 1.83-2.312 4.5L427 319l3 2 3-2c.25-2.584.25-2.584 0-5zM491 272h4l1 9 1.688-1.5c2.694-1.748 4.166-1.762 7.312-1.5a56.5 56.5 0 0 1-4 7l1.094 1.46 1.406 1.915 1.406 1.898C506 292 506 292 506 294c-2.187.375-2.187.375-5 0-1.99-1.84-3.39-3.792-5-6l-1 6h-4zM257 303h4v5l3.875-.125c2.18-.07 2.18-.07 4.125.125 2 2 2 2 2.195 5.477a289 289 0 0 1-.07 4.148l-.027 2.14A625 625 0 0 1 271 325h-4l-1-13-4 2c-.704 2.648-.704 2.648-.75 5.625l-.172 3.04L261 325h-4zM239 278v16h-5v-12h-5l.035 2.117.028 2.758.035 2.742C229 292 229 292 228 294h-4v-16c5.58-1.116 9.397-.672 15 0M145 278h5l4 7 3-7h5c-.98 4.284-2.676 8.114-4.437 12.125l-.948 2.207c-2.37 5.424-2.37 5.424-4.615 7.668-2.625.125-2.625.125-5 0v-4l3-2c-.847-3.913-2.453-7.277-4.16-10.879C145 281 145 281 145 278"/><path d="M447 279v4h-5l2.438.625C447 285 447 285 448 287.938c0 3.062 0 3.062-.937 4.937-3.196 1.743-6.501 1.678-10.063 1.125l-3-2c-.363-2.75-.363-2.75-.312-6l.011-3.25C434 280 434 280 436 278c3.91-1.738 7.103-.274 11 1m-10 8 2 3c2.584.25 2.584.25 5 0-3.056-2.588-3.056-2.588-7-3M356.938 307.813l3.277-.043C363 308 363 308 365 310c.145 2.58.187 5.05.125 7.625l-.027 2.14A625 625 0 0 1 365 325h-4l-.184-2.117-.253-2.758-.247-2.742c-.186-2.394-.186-2.394-1.316-4.383h-4l-1 12-4-1q-.04-3.72-.062-7.437l-.026-2.143c-.009-1.807.036-3.614.088-5.42 1.807-1.807 4.504-1.173 6.938-1.187M250.094 307.566c2.897.66 4.225 2.052 5.906 4.434v2c-3.856.22-6.492-.396-10-2l-1 8h5l1-2h5c-.312 2.375-.312 2.375-1 5-3.787 2.525-6.554 2.622-11 2-2.175-1.543-2.818-2.637-4-5-.375-3.97-.327-6.359 1.5-9.937 3.045-2.512 4.74-2.734 8.594-2.497M289 278h4l1 12 4-1 1-11h5v16c-9.96.195-9.96.195-13 0-2-2-2-2-2.195-5.258l.07-3.867.055-3.883zM253 278c1.875 2.563 1.875 2.563 3 5l-5 1v-2l-5 1v6h4l1-2h5c-.312 2.375-.312 2.375-1 5-2.997 1.998-3.633 2.276-7 2.25l-2.062.016C244 294 244 294 241 292c-1.198-3.593-1.33-6.227-1-10 3.675-4.816 7.243-5.68 13-4M257 278h4v12l4-1 1-11h5v16l-5.875.063-3.305.035C259 294 259 294 257 293zM440 308c10.75-.125 10.75-.125 13 1 1.14 3.422 1.098 6.087 1.063 9.688l-.028 3.574L454 325h-4l-1-11h-4l-1 10-4 1zM142 278c2 2 2 2 2.195 5.258l-.07 3.867-.055 3.883L144 294h-4l-1-11-4-1-1 12h-4v-16c8.25-1.179 8.25-1.179 12 0M401 278c2.375.188 2.375.188 5 1 1.313 2.563 1.313 2.563 2 5 2.784-1.392 2.979-3.156 4-6l5 1c-1.867 5.069-3.835 10.051-6 15-2.324-.168-2.324-.168-5-1-1.582-2.363-1.582-2.363-2.812-5.312l-1.27-2.926C401 282 401 282 401 278M408 304l5 1c1.238 6.656 1.091 13.247 1 20-2.375.188-2.375.188-5 0-2.376-3.563-2.447-5.698-2.75-9.937l-.297-3.715c.045-3.198.331-4.715 2.047-7.348M379 272h3v18h11v4h-15q-.04-5.22-.062-10.437l-.026-3.01-.01-2.862-.016-2.65C378 273 378 273 379 272M283 273l3 1v4h2v4h-2v8h2v4c-2.375.125-2.375.125-5 0-2-2-2-2-2.195-4.383l.07-2.742.055-2.758L281 282h-2v-4h2v-4zM452 273l3 1v4h2v4h-2v8h2v4c-2.375.188-2.375.188-5 0-2.136-3.204-2.231-4.02-2.125-7.687l.055-2.45L450 282h-2v-4h2v-4zM415 303h5v22h-5zM333 272h4c1.174 2.349 1.115 3.738 1.098 6.352l-.01 2.578-.026 2.695-.013 2.719q-.018 3.328-.049 6.656l-5 1zM274 272l4 1v21l-5-1q-.042-4.969-.062-9.937l-.026-2.866-.01-2.724-.016-2.524C273 273 273 273 274 272M231 308h9v5l-1.937.375L236 314c-1.148 2.296-1.308 4.077-1.562 6.625l-.254 2.477L234 325h-3zM368 303l4 1v20l-4 1zM254 124h3q.04 4.156.063 8.313l.025 2.38.01 2.295.016 2.11C257 141 257 141 256 144l-3-1q-.04-4.187-.062-8.375l-.026-2.406c-.025-5.992-.025-5.992 1.088-8.219M395 278h4v16h-4z"/><path fill="#AD794E" d="M243 3v3c-1.32.2-1.32.2-2.668.402l-3.52.535-3.48.528c-2.795.449-5.561.956-8.332 1.535l1-4q2.843-.506 5.688-1l3.199-.562A47 47 0 0 1 243 3"/><path fill="#9C7045" d="m239 416 9 1v3l-9-1z"/><path d="m234 272 5 1-1 4h-4zM395 272h4v5h-4z"/><path fill="#A57B4D" d="m365 415 1 2-8 2v-3c2.463-1.231 4.28-1.072 7-1"/><path fill="#B97C54" d="m359 4 8 1v2h-7z"/><path fill="#84653C" d="M357 416v3h-6v-2c3-1 3-1 6-1"/><path fill="#D15B3E" d="M247 2h3v3h-3z"/><path fill="#A67368" d="m343 1 2 1-1 3-2-1z"/><path fill="#BA9243" d="m250 417 1 4-2-1z"/><path fill="#C07754" d="M346 2h2v3h-2z"/><path fill="#B57352" d="M244 3h2v2h-2z"/></svg>